<?xml version="1.0" encoding="UTF-8"?>
<svg width="1440px" height="202px" viewBox="0 0 1440 202" version="1.1" xmlns="http://www.w3.org/2000/svg" xmlns:xlink="http://www.w3.org/1999/xlink">
    <!-- Generator: Sketch 64 (93537) - https://sketch.com -->
    <title>Hero_path</title>
    <desc>Created with Sketch.</desc>
    <g id="Page-1" stroke="none" stroke-width="1" fill="none" fill-rule="evenodd">
        <g id="01_FisTx_Web_Home_01" transform="translate(0.000000, -599.000000)">
            <g id="Hero" transform="translate(-0.000000, 0.000000)">
                <g id="Hero_path" transform="translate(0.000000, 599.044431)">
                    <path d="M0,123.974401 C22.721946,129.164093 88.8722733,169.164093 175,163.974401 C261.127727,158.78471 320.799985,112.715188 455.908913,105.845964 C591.017841,98.9767399 641.120538,136.357196 845,129.910183 C1048.87946,123.463169 1034.99453,0 1440,0 C1440,67.0058172 1440,134.073202 1440,201.202155 L0,201.202155 C0,160.285423 0,134.542839 0,123.974401 Z" id="Path-Copy" fill-opacity="0.3" fill="#FFFFFF"></path>
                    <path d="M0,103.974401 C22.721946,109.164093 88.8722733,169.164093 175,163.974401 C261.127727,158.78471 320.799985,102.715188 455.908913,95.8459639 C591.017841,88.9767399 641.120538,126.357196 845,119.910183 C1048.87946,113.463169 1034.99453,20 1440,20 C1440,87.0058172 1440,147.406535 1440,201.202155 L0,201.202155 C0,146.95209 0,114.542839 0,103.974401 Z" id="Path-Copy-2" fill-opacity="0.3" fill="#FFFFFF"></path>
                    <path d="M0,143.974401 C22.721946,149.164093 88.8722733,169.164093 175,163.974401 C261.127727,158.78471 320.799985,122.715188 455.908913,115.845964 C591.017841,108.97674 641.120538,136.357196 845,129.910183 C1048.87946,123.463169 1034.99453,30 1440,30 C1440,97.0058172 1440,154.073202 1440,201.202155 L0,201.202155 C0,173.618756 0,154.542839 0,143.974401 Z" id="Path" fill="#F7F8FD"></path>
                </g>
            </g>
        </g>
    </g>
</svg>