<?xml version="1.0" encoding="UTF-8"?>
<svg width="90px" height="57px" viewBox="0 0 90 57" version="1.1" xmlns="http://www.w3.org/2000/svg" xmlns:xlink="http://www.w3.org/1999/xlink">
    <!-- Generator: Sketch 64 (93537) - https://sketch.com -->
    <title>FisTx_Vlogo</title>
    <desc>Created with Sketch.</desc>
    <g id="Page-1" stroke="none" stroke-width="1" fill="none" fill-rule="evenodd">
        <g id="01_FisTx_Web_Home_01" transform="translate(-135.000000, -22.000000)">
            <g id="Hero" transform="translate(-0.000000, 0.000000)">
                <g id="NAV" transform="translate(0.000000, 0.000000)">
                    <g id="FisTx_Vlogo" transform="translate(135.000000, 22.000000)">
                        <g id="Group" transform="translate(0.000000, 28.145859)">
                            <polygon id="Rectangle" fill="#8ED6EE" points="82.9233871 0.453554641 89.9092742 0.453554641 71.0383065 27.2132784 64.0524194 27.2132784"></polygon>
                            <polygon id="Rectangle" fill="#FFFFFF" points="70.4032258 8.98038188 77.0262097 8.98038188 90 27.2132784 83.3770161 27.2132784"></polygon>
                            <path d="M20.9576613,0 L20.9576613,5.44265569 L6.078,5.442 L6.078,11.338 L19.1431452,11.338866 L19.1431452,16.7815217 L6.078,16.781 L6.07862903,27.4854112 L0,27.4854112 L0,0 L20.9576613,0 Z" id="Combined-Shape" fill="#FFFFFF"></path>
                            <rect id="Rectangle" fill="#FFFFFF" x="23.2258065" y="7.16616332" width="5.98790323" height="19.7749823"></rect>
                            <polygon id="Rectangle-Copy" fill="#FFFFFF" transform="translate(26.219758, 2.721328) scale(1, -1) translate(-26.219758, -2.721328) " points="23.0443548 2.33188005e-14 29.3951613 2.33188005e-14 29.3951613 5.44265569 23.0443548 5.44265569"></polygon>
                            <path d="M45.3629032,6.4404759 L45.3629032,0.362843713 L71.3104839,0.362843713 L75.3024194,6.4404759 L59.8790323,6.4404759 L59.8790323,28.1203877 L53.8004032,28.1203877 L53.8004032,6.4404759 L45.3629032,6.4404759 Z" id="Combined-Shape" fill="#FFFFFF"></path>
                            <path d="M33.3385525,20.8628877 C32.7829338,21.6663174 31.9440787,22.9657904 30.8219871,24.7613067 C33.3255136,26.8112776 36.3408319,27.8818574 39.8679418,27.9730461 C43.7931718,28.0745277 46.7289137,26.3474803 47.4709879,23.5196116 C48.7082787,18.8045897 46.137724,16.9266918 44.0283232,15.855359 C41.2075295,14.4227205 36.4461666,13.9883645 37.2723242,11.9729117 C38.001217,10.1947413 40.6026372,10.4704233 45.0765849,12.7999577 L47.2990594,8.72001452 C44.0387616,6.65720097 40.7775485,5.89735477 37.5154202,6.4404759 C34.7808467,6.8957629 32.1879363,8.89100985 31.8866327,11.9729117 C31.367161,17.2863594 35.5060386,18.3148941 36.5915736,18.8045897 C39.5373384,20.1334532 43.0170992,20.1233206 42.3885007,22.2096273 C41.6196867,24.7613067 35.2012982,22.8376416 33.3385525,20.8628877 Z" id="Path" fill="#FFFFFF"></path>
                        </g>
                        <path d="M18.1334981,25.6967669 C18.1334981,22.8532851 18.7887976,14.4202641 27.4356355,10.3603087 C24.1013117,14.8009531 22.3064908,19.5047406 22.0511728,24.4716711 C20.3153779,24.6662398 19.0094863,25.074605 18.1334981,25.6967669 Z M50.0879138,0.00502477597 C50.1465468,2.20495341 49.7614929,4.33991992 48.9327522,6.40992431 C49.4318217,6.61315673 49.6751188,6.723144 50.0666386,6.90588859 C51.014305,4.83737455 51.4774439,2.55974783 51.4560554,0.0730084291 C52.0004398,0.115959142 52.5512751,0.17848683 53.1079946,0.262235098 C54.1435526,7.2367385 52.4177463,12.8332577 47.9305757,17.0517926 C49.2947043,20.7119972 49.0059087,23.3166694 47.0641888,24.8658091 C45.6818078,23.8573896 44.9906172,22.547755 44.9906172,20.9369055 L43.4888532,20.9369055 L43.4888532,27.6551808 L40.625967,27.6551808 L40.625967,29.8818903 L37.3911302,29.8818903 L37.3911302,24.446002 L40.625967,24.446002 L40.625967,18.7006593 L46.0067474,18.7006593 L46.0067474,14.8912395 C42.0625746,14.2408732 39.9882934,9.97519958 39.0400979,7.27439479 L39.0400979,15.4161605 L35.552697,15.4161605 L35.552697,11.4882144 L31.3782323,11.4882144 L31.3782323,15.466326 L35.541145,15.466326 L35.541145,18.8814825 L31.3791505,18.8814825 L31.3791505,24.446002 L23.5797309,24.446002 C24.6049797,14.1613804 29.2247082,9.67793057 31.560649,7.27439479 C33.671979,5.10196938 40.835983,-0.185672154 50.0879138,0.00502477597 L50.0879138,0.00502477597 Z M40.634654,29.8417748 L43.357131,29.8417748 L43.357131,32.3733004 L40.634654,32.3733004 L40.634654,29.8417748 Z M44.8091188,7.05804464 C45.9618654,7.05804464 46.8963511,6.12703536 46.8963511,4.9785772 C46.8963511,3.83011905 45.9618654,2.89910977 44.8091188,2.89910977 C43.6563722,2.89910977 42.7218864,3.83011905 42.7218864,4.9785772 C42.7218864,6.12703536 43.6563722,7.05804464 44.8091188,7.05804464 Z" id="Shape" fill="#8ED6EE"></path>
                    </g>
                </g>
            </g>
        </g>
    </g>
</svg>