<?xml version="1.0" encoding="UTF-8"?>
<svg width="60px" height="38px" viewBox="0 0 60 38" version="1.1" xmlns="http://www.w3.org/2000/svg" xmlns:xlink="http://www.w3.org/1999/xlink">
    <!-- Generator: Sketch 64 (93537) - https://sketch.com -->
    <title>FisTx_Vlogo_Footer</title>
    <desc>Created with Sketch.</desc>
    <g id="Page-1" stroke="none" stroke-width="1" fill="none" fill-rule="evenodd">
        <g id="01_FisTx_Web_Home_01" transform="translate(-134.000000, -3723.000000)">
            <g id="Footer" transform="translate(0.000000, 3340.000000)">
                <g id="Group-20" transform="translate(0.000000, 360.000000)">
                    <g id="FisTx_Vlogo_Footer" transform="translate(134.000000, 23.000000)">
                        <g id="Group" transform="translate(0.000000, 18.763906)">
                            <polygon id="Rectangle" fill="#8ED6EE" points="55.2822581 0.30236976 59.9395161 0.30236976 47.358871 18.1421856 42.7016129 18.1421856"></polygon>
                            <polygon id="Rectangle" fill="#FFFFFF" points="46.9354839 5.98692126 51.3508065 5.98692126 60 18.1421856 55.5846774 18.1421856"></polygon>
                            <path d="M13.9717742,0 L13.9717742,3.62843713 L4.052,3.628 L4.052,7.559 L12.7620968,7.55924401 L12.7620968,11.1876811 L4.052,11.187 L4.05241935,18.3236075 L0,18.3236075 L0,0 L13.9717742,0 Z" id="Combined-Shape" fill="#FFFFFF"></path>
                            <rect id="Rectangle" fill="#FFFFFF" x="15.483871" y="4.77744221" width="3.99193548" height="13.1833216"></rect>
                            <polygon id="Rectangle-Copy" fill="#FFFFFF" transform="translate(17.479839, 1.814219) scale(1, -1) translate(-17.479839, -1.814219) " points="15.3629032 1.5545867e-14 19.5967742 1.5545867e-14 19.5967742 3.62843713 15.3629032 3.62843713"></polygon>
                            <path d="M30.2419355,4.2936506 L30.2419355,0.241895808 L47.5403226,0.241895808 L50.2016129,4.2936506 L39.9193548,4.2936506 L39.9193548,18.7469251 L35.8669355,18.7469251 L35.8669355,4.2936506 L30.2419355,4.2936506 Z" id="Combined-Shape" fill="#FFFFFF"></path>
                            <path d="M22.2257017,13.9085918 C21.8552892,14.4442116 21.2960525,15.3105269 20.5479914,16.5075378 C22.2170091,17.8741851 24.2272212,18.5879049 26.5786279,18.6486974 C29.1954479,18.7163518 31.1526091,17.5649868 31.6473252,15.679741 C32.4721858,12.5363931 30.7584827,11.2844612 29.3522155,10.5702393 C27.4716864,9.615147 24.2974444,9.32557632 24.8482161,7.98194115 C25.3341447,6.79649423 27.0684248,6.98028221 30.0510566,8.53330511 L31.5327063,5.81334301 C29.3591744,4.43813398 27.1850323,3.93156984 25.0102801,4.2936506 C23.1872311,4.59717527 21.4586242,5.9273399 21.2577551,7.98194115 C20.9114407,11.5242396 23.6706924,12.2099294 24.3943824,12.5363931 C26.3582256,13.4223022 28.6780661,13.4155471 28.2590005,14.8064182 C27.7464578,16.5075378 23.4675322,15.2250944 22.2257017,13.9085918 Z" id="Path" fill="#FFFFFF"></path>
                        </g>
                        <path d="M12.0889988,17.1311779 C12.0889988,15.2355234 12.5258651,9.61350943 18.2904237,6.90687245 C16.0675412,9.86730209 14.8709939,13.0031604 14.7007819,16.3144474 C13.5435852,16.4441598 12.6729909,16.7164033 12.0889988,17.1311779 Z M33.3919425,0.00334985065 C33.4310312,1.46996894 33.1743286,2.89327995 32.6218348,4.27328287 C32.9545478,4.40877115 33.1167459,4.482096 33.377759,4.60392573 C34.0095366,3.22491637 34.3182959,1.70649855 34.304037,0.0486722861 C34.6669598,0.0773060946 35.0341834,0.11899122 35.4053297,0.174823398 C36.0957018,4.82449233 34.9451642,8.55550512 31.9537171,11.3678617 C32.8631362,13.8079981 32.6706058,15.5444462 31.3761259,16.5772061 C30.4545385,15.9049264 29.9937448,15.0318367 29.9937448,13.957937 L28.9925688,13.957937 L28.9925688,18.4367872 L27.083978,18.4367872 L27.083978,19.9212602 L24.9274201,19.9212602 L24.9274201,16.2973347 L27.083978,16.2973347 L27.083978,12.4671062 L30.671165,12.4671062 L30.671165,9.92749298 C28.0417164,9.49391548 26.6588623,6.65013305 26.026732,4.84959652 L26.026732,10.2774403 L23.701798,10.2774403 L23.701798,7.6588096 L20.9188215,7.6588096 L20.9188215,10.310884 L23.6940967,10.310884 L23.6940967,12.587655 L20.9194337,12.587655 L20.9194337,16.2973347 L15.7198206,16.2973347 C16.4033198,9.44092027 19.4831388,6.45195371 21.0404326,4.84959652 C22.447986,3.40131292 27.2239887,-0.123781436 33.3919425,0.00334985065 L33.3919425,0.00334985065 Z M27.0897694,19.8945165 L28.904754,19.8945165 L28.904754,21.5822002 L27.0897694,21.5822002 L27.0897694,19.8945165 Z M29.8727458,4.70536309 C30.6412436,4.70536309 31.2642341,4.08469024 31.2642341,3.31905147 C31.2642341,2.5534127 30.6412436,1.93273985 29.8727458,1.93273985 C29.1042481,1.93273985 28.4812576,2.5534127 28.4812576,3.31905147 C28.4812576,4.08469024 29.1042481,4.70536309 29.8727458,4.70536309 Z" id="Shape" fill="#8ED6EE"></path>
                    </g>
                </g>
            </g>
        </g>
    </g>
</svg>